# xmcd
#
# Track frame offsets:
#	150
#	13221
#	22202
#	43977
#	55310
#	60549
#	71863
#	84880
#	98076
#	108264
#	119258
#	127858
#	145895
#	159572
#	173803
#
# Disc length: 2476 seconds
#
# Revision: 3
# Processed by: cddbd v1.5.2PL0 Copyright (c) Steve Scherf et al.
# Submitted via: audiograbber 1.83.01
#
DISCID=ce09aa0f
DTITLE=Various Artist - Mega Country Vol. II CD2
DYEAR=1998
DGENRE=Country
TTITLE0=Loretta Lynn - Let your love flow
TTITLE1=Jim Reeves - Billy Bayou
TTITLE2=Willie Nelson - City of New Orleans
TTITLE3=Johnny Paycheck - Heartaches by the number
TTITLE4=Brenda Lee - Operator
TTITLE5=Sammi Smith - Help me make it through the night
TTITLE6=Ferlin Husky - A room full of roses
TTITLE7=Johnny Russell - Catfish John
TTITLE8=Patsy Cline - Pick me up on your way down
TTITLE9=Jeannie C. Riley - Box of memories
TTITLE10=Johnny Cash - Get rhythm
TTITLE11=Tom T. Hall - I like beer
TTITLE12=B. Fairchildd and B. Owens - Crazy love
TTITLE13=Jerry Lee Lewis - What's made Milwakee famous
TTITLE14=Jack Greene - There goes my everything
EXTD=
EXTT0=
EXTT1=
EXTT2=
EXTT3=
EXTT4=
EXTT5=
EXTT6=
EXTT7=
EXTT8=
EXTT9=
EXTT10=
EXTT11=
EXTT12=
EXTT13=
EXTT14=
PLAYORDER=
